<?xml version="1.0" standalone="no"?>
<!DOCTYPE svg PUBLIC "-//W3C//DTD SVG 20010904//EN"
 "http://www.w3.org/TR/2001/REC-SVG-20010904/DTD/svg10.dtd">
<svg version="1.0" xmlns="http://www.w3.org/2000/svg"
 width="500.000000pt" height="500.000000pt" viewBox="0 0 500.000000 500.000000"
 preserveAspectRatio="xMidYMid meet">

<g transform="translate(0.000000,500.000000) scale(0.100000,-0.100000)"
fill="#000000" stroke="none">
<path d="M867 3223 c-16 -15 -4 -40 32 -64 73 -51 89 -83 127 -260 19 -89 40
-171 45 -181 6 -11 25 -28 42 -38 29 -18 52 -20 265 -20 245 0 278 5 301 48
12 23 79 271 87 323 8 47 -7 82 -43 98 -15 7 -113 11 -277 11 -210 0 -256 -3
-266 -15 -26 -32 -1 -35 259 -35 220 0 260 -2 271 -15 11 -13 6 -42 -25 -163
-21 -81 -44 -159 -52 -174 l-14 -28 -234 0 c-222 0 -236 1 -255 20 -11 11 -20
31 -20 45 0 23 4 25 45 25 41 0 45 2 45 25 0 24 -3 25 -54 25 -50 0 -54 2 -60
28 -4 15 -9 35 -12 44 -5 16 13 18 238 20 235 3 243 4 243 23 0 19 -8 20 -247
23 l-247 2 -15 53 c-18 63 -56 116 -113 157 -44 31 -55 35 -66 23z"/>
<path d="M2088 2952 c-78 -48 -74 -178 7 -216 53 -26 125 -18 125 14 0 14 -7
16 -49 12 -43 -4 -53 -1 -75 21 -35 35 -35 89 -1 123 21 21 33 25 72 23 32 -2
48 1 51 10 11 33 -83 43 -130 13z"/>
<path d="M2337 2855 c-26 -63 -47 -119 -47 -125 0 -23 29 -8 39 20 9 28 13 30
65 30 52 0 57 -2 71 -30 16 -30 29 -38 39 -21 9 13 -89 236 -105 239 -10 2
-29 -33 -62 -113z m79 10 c19 -46 19 -45 -21 -45 -19 0 -35 2 -35 5 0 8 33 75
37 75 2 0 11 -16 19 -35z"/>
<path d="M2592 2850 c3 -121 18 -166 28 -80 5 42 7 45 37 48 43 4 73 -13 73
-43 0 -23 23 -55 40 -55 15 0 21 18 12 37 -5 10 -16 33 -25 51 -9 17 -12 32
-8 32 18 0 32 56 22 83 -14 36 -40 47 -116 47 l-66 0 3 -120z m138 60 c20 -37
-3 -60 -60 -60 l-50 0 0 40 0 40 50 0 c39 0 52 -4 60 -20z"/>
<path d="M2860 2956 c0 -16 21 -26 55 -26 24 0 24 -2 27 -102 2 -84 6 -103 18
-103 12 0 16 19 18 103 l3 102 27 0 c34 0 57 14 48 29 -5 7 -43 11 -102 11
-74 0 -94 -3 -94 -14z"/>
<path d="M3145 2958 c-3 -8 -4 -63 -3 -124 2 -89 6 -109 18 -109 12 0 15 20
15 119 0 87 -3 120 -12 123 -7 3 -15 -2 -18 -9z"/>
<path d="M3292 2848 l3 -123 70 0 c58 0 70 3 73 18 3 15 -5 17 -57 17 l-61 0
0 34 0 35 53 3 c38 2 52 7 52 18 0 11 -14 16 -52 18 -51 3 -53 4 -53 32 0 28
1 29 57 32 46 2 59 7 61 21 3 15 -6 17 -73 17 l-76 0 3 -122z"/>
<path d="M3542 2953 c2 -14 16 -19 60 -23 l57 -5 -70 -89 c-38 -50 -68 -95
-66 -100 2 -7 40 -11 98 -11 77 0 94 3 94 15 0 11 -16 16 -66 20 l-67 5 69 87
c38 48 69 94 69 103 0 12 -16 15 -91 15 -81 0 -90 -2 -87 -17z"/>
<path d="M1210 2840 c0 -26 49 -41 125 -38 l77 3 -28 24 c-18 16 -25 18 -21 8
3 -9 2 -19 -3 -22 -5 -3 -11 5 -13 17 -4 23 -4 23 -6 -1 -1 -20 -3 -21 -16
-11 -9 7 -15 8 -15 2 0 -6 -8 -9 -17 -7 -10 2 -24 4 -31 4 -7 1 -10 6 -7 11 4
6 11 8 16 5 5 -4 9 -1 9 4 0 6 -16 11 -35 11 -19 0 -35 -4 -35 -10z"/>
<path d="M1290 2839 c0 -5 5 -7 10 -4 6 3 10 8 10 11 0 2 -4 4 -10 4 -5 0 -10
-5 -10 -11z"/>
<path d="M1424 2835 c-10 -25 9 -37 52 -33 31 2 39 7 39 23 0 16 -8 21 -43 23
-32 2 -44 -1 -48 -13z"/>
<path d="M1170 2580 c-11 -11 -20 -33 -20 -50 0 -17 9 -39 20 -50 43 -43 120
-11 120 50 0 38 -32 70 -70 70 -17 0 -39 -9 -50 -20z"/>
<path d="M1491 2574 c-12 -15 -21 -35 -21 -46 0 -29 45 -68 78 -68 35 0 72 37
72 73 0 63 -90 91 -129 41z"/>
</g>
</svg>
